<?xml version="1.0" encoding="UTF-8"?>
<svg id="Layer_2" data-name="Layer 2" xmlns="http://www.w3.org/2000/svg" viewBox="0 0 895.34 289.28">
  <defs>
    <style>
      .cls-1 {
        fill: #fff;
        stroke-width: 0px;
      }
    </style>
  </defs>
  <g id="Layer_1-2" data-name="Layer 1">
    <g>
      <path class="cls-1" d="M323.93,0c45.19.06,90.39-.03,135.58.04,3.17-.15,4.71,3.52,5.05,6.18.67,3.45-.92,6.71-3.09,9.28,1.79-.06,3.59-.11,5.39-.19-1.62,3.95.03,8.22-1.34,12.22,1.64-.02,3.29-.03,4.96-.03.01,2.16.03,4.33.1,6.5,1.96.03,3.92-.01,5.9.02-1.94,2.17-4.34,3.97-5.86,6.48-.13,1.46.06,2.92.18,4.38-3.94.6-8.08.96-11.45,3.29,3.48.64,7.02.34,10.53.3-.68,8.91-11.09,12.66-11.68,21.57-1.63.27-3.55-.08-4.89,1.06-.87,1.85-1.14,3.9-1.61,5.88-2.04,0-4.08.03-6.1.09-.02,4.58,2.32,8.59,4.01,12.7-1.74-.49-3.48-.96-5.22-1.42,1.24,1.76,2.55,3.48,3.82,5.23-2.4.31-4.79.68-7.16,1.08,1.9,4.4,2.42,9.22,4.02,13.72,30.06.05,60.12-.01,90.18.03-1.34,5.75-2.94,11.44-4.88,17.01,4.68,5.96,9.43,12.3,11.07,19.85,1.15,5.08.04,10.77-3.51,14.68-3.12.48-6.56-.06-9.17,2.1,4.17.99,8.27,2.64,10.88,6.24,1.88-3.34,2.5-7.19,4.23-10.59,1.44-2.63,6.16-3.5,7.39-.22,1.88,5.07.12,11.07,3.68,15.62-4.21.2-8.42.2-12.6.66.92,2.55,3.62,5.31,1.48,7.97-1.83.44-3.73.48-5.56.7,7.26,12.3,24.46,9.61,33.54,19.73-1.22,3.95-2.97,7.7-4.4,11.58-4.52-.67-8.99-1.59-13.33-3.01-.76-2.63-1.38-5.7-3.98-7.17-4.85-2.86-10.7-3.21-15.71-5.74-.91-2.46-1.08-5.48-3.09-7.33-2.77-.98-6.09.61-7.57,3.09-2.78,4.56-2.41,10.36-5.42,14.82-1.28,1.91-3.68,2.41-5.65,3.29-1.57-2.91-2.93-5.93-3.69-9.15-3.28-.64-6.38-1.94-9.65-2.53-4.39,1.62-4.85,7.18-8.29,9.72-11.37,2.63-22.73-2.4-32.54-7.72.96-2.77,3.57-4.16,5.68-5.94-3.23-5.61-9.96-7.12-15.97-6.79-.08-3.17-2.78-4.87-4.6-7.06-.04-1.12.17-2.21.31-3.3-4.14-.49-8.27-1.08-12.44-.97.94-1.36,1.88-2.72,2.83-4.08-2.49-.66-5.02-1.17-7.55-1.59.01,1.34.03,2.69.06,4.05-3.35.7-6.7,1.43-10.05,2.14,1.2,1.89,2.36,4.12,4.67,4.83,5.99,2.04,12.57,1.2,18.52,3.46-.91,2.37-1.96,4.68-3.18,6.9-4.12-1.93-8.25-4.19-10.96-7.96-4.82,1.66-10.57,1.33-14.26,5.38-17.62-2.55-33.22-12.6-51.02-14.26-8.85-.97-17.73,1.11-25.8,4.69-2.67-1.83-4.84-4.25-6.83-6.78,5.1-5.25,11.5-10.09,13.53-17.45,1.12-3.73-.83-7.28-2.93-10.22,1.61-8.73,2.77-18.42,9.46-24.94-1.45-4.81-3.53-11.51,1.86-14.7-1.62-5.12-5.36-9.04-9.36-12.44,1.57-6.46-3.84-10.9-6.85-15.82,1.2-3.32,2.44-7.18.37-10.43-2.66-5.65-10.75-8.36-10.25-15.39-.65-17.79,1.99-35.58.21-53.34ZM371.69,25.55c-5.14,3.3-8.83,9.52-7.61,15.75.64,4.46,3.68,8.04,6.9,11-4.44,2.53-8.74,5.62-11.5,10.02-4.34,6.71-4.21,15.96.28,22.57,3.65,5.64,10.13,8.79,16.56,10.03,10.82,1.71,22.65-.23,31.36-7.21,2.13,2.08,4.25,4.17,6.33,6.31,5.1.05,10.2.02,15.31.02-.01-4.33-.02-8.66.02-13-1.94.01-3.87.02-5.79.03-2.08-2.1-4.17-4.18-6.26-6.26,2.31-3.88,4.23-7.99,5.74-12.25,3.32.01,6.63,0,9.95,0-.01-4.33,0-8.66,0-12.99-7.3,0-14.6,0-21.89,0-1.38,4.65-3.11,9.2-5.24,13.56-3.14-3.07-6.22-6.21-9.37-9.26,3.47-1.84,7.06-3.9,9.24-7.31,3.13-4.61,2.89-10.95.08-15.66-2.55-4.56-7.32-7.47-12.29-8.7-7.32-1.71-15.54-1.09-21.82,3.35Z"/>
      <path class="cls-1" d="M98.87,20.97c10.53-1.17,22.09.46,30.44,7.47,6.78,5.58,10.05,14.28,11.01,22.8,1.02,9.83.24,20.33-4.9,29.01-4.44,7.52-12.46,12.49-20.96,14.05-9.57,1.77-19.9,1.02-28.65-3.46-7.44-3.81-12.78-10.97-15.13-18.9-2.67-9.62-2.79-20.2.76-29.62,4.19-11.56,15.22-20.09,27.43-21.35ZM102.6,36.48c-3.33.97-5.31,4.19-6.5,7.24-2.49,6.91-2.72,14.49-1.56,21.68.83,4.38,2.22,9.07,5.78,12.03,2.71,2.4,7.3,2.32,9.73-.47,4.35-4.72,5.1-11.54,5.25-17.69-.03-6.64-.39-13.87-4.38-19.47-1.82-2.65-5.15-4.12-8.32-3.32Z"/>
      <path class="cls-1" d="M506.63,21.52c8.84-1.63,19.28.12,25.01,7.7.66-2.31,1.24-4.64,2.1-6.88,5.04-.47,10.11-.1,15.17-.2-.08,9.97,0,19.94-.04,29.91-6,.02-12-.05-18,.06-.54-3.37-1.2-7-3.74-9.5-3.31-3.64-9.17-4.57-13.38-1.96-5.41,3.19-7.88,9.66-8.3,15.67-.41,5.97.78,12.51,5.01,17.01,4.8,5.13,14.11,5.01,18.35-.79-.01-1.64-.01-3.27,0-4.9-2.07,0-4.12.01-6.17.02.01-3.62.01-7.23,0-10.85,11.23,0,22.47.01,33.71,0-.02,3.62-.02,7.23,0,10.85-1.35,0-2.69,0-4.02-.02.01,8.45.01,16.9-.01,25.35-6.81-.03-13.62.01-20.42-.02-.94-1.94-1.87-3.88-2.76-5.82-2.96,2.9-6.46,5.42-10.59,6.29-11.12,2.45-23.52-1.93-30.32-11.15-8.98-12.05-9.69-29.18-3.35-42.57,4.18-8.77,12.08-16.13,21.75-18.2Z"/>
      <path class="cls-1" d="M.02,22.39c10.69.02,21.38-.01,32.06.02.01,4.48,0,8.97.01,13.46-1.79,0-3.58,0-5.36,0v44.08c4.3,0,8.61,0,12.92,0-.01-4.31,0-8.61-.01-12.92,5.73-.01,11.45,0,17.17-.01,0,8.77.02,17.54,0,26.31-18.92.06-37.85-.08-56.77.02-.02-4.47-.02-8.93-.03-13.4,1.85,0,3.71,0,5.57.02.02-14.7,0-29.4,0-44.09-1.87,0-3.73,0-5.58,0,.02-4.49.02-8.99.02-13.48Z"/>
      <path class="cls-1" d="M167.98,22.39c12.97.01,25.94.01,38.91,0,5.95,19.2,11.95,38.39,17.95,57.57,2.32-.01,4.65-.02,6.98-.03-.01,4.47,0,8.93.01,13.39-13.55-.08-27.1.06-40.64-.05.02-4.45,0-8.89,0-13.33,3.2,0,6.41,0,9.62-.01-.69-2.28-1.4-4.55-2.1-6.82-6.89-.01-13.77-.02-20.65,0-.71,2.27-1.42,4.55-2.11,6.82,2.6.01,5.2,0,7.81,0-.01,4.46-.01,8.93.01,13.39-10.75,0-21.5,0-32.25,0-.02-4.46-.02-8.92-.02-13.37,2.3-.01,4.61-.02,6.92-.03,4.54-14.79,9.1-29.58,13.65-44.37-1.37.01-2.73.02-4.09.03-.01-4.4,0-8.8.01-13.2ZM181.81,60.79c4.37-.01,8.73,0,13.1-.02-2.17-7.21-4.4-14.41-6.58-21.63-2.2,7.21-4.34,14.44-6.52,21.65Z"/>
      <path class="cls-1" d="M243.65,22.41c9.92-.03,19.83,0,29.75-.02,8.82-.16,17.89,1.7,25.31,6.66,8.24,5.29,13.43,14.63,14.18,24.32.7,9.52-.93,19.79-7.03,27.42-6.69,8.6-17.88,12.19-28.42,12.46-11.26.17-22.53.03-33.79.07-.03-4.46-.02-8.91-.02-13.37h6.28c-.01-14.7-.01-29.41.01-44.11-2.1.01-4.18.03-6.26.04-.03-4.49-.04-8.98-.01-13.47ZM270.81,80.03c3.97-.09,8.37-.06,11.63-2.71,5.44-4.23,6.84-11.61,7.17-18.11.26-7.21-.83-15.51-6.67-20.44-3.3-3.01-7.98-2.89-12.14-3-.04,14.75-.05,29.5.01,44.26Z"/>
      <path class="cls-1" d="M568.24,22.04c20.36.02,40.72.01,61.08.01.02,7.48-.04,14.96.02,22.44-5.91.01-11.81.01-17.71.01.01-3,.01-6,.04-8.99-5.35-.05-10.7-.06-16.04-.02-.02,4.68-.04,9.37-.02,14.05,6.38.03,12.76.01,19.14.02-.03,4.47-.03,8.95,0,13.43-6.39-.03-12.77-.02-19.16,0,0,5.52.03,11.04,0,16.57,5.35-.01,10.69,0,16.04,0,0-3.12.02-6.24.02-9.36,5.88,0,11.77.02,17.66-.01,0,7.6-.02,15.2-.01,22.81-20.36-.02-40.71-.02-61.07,0,0-4.49.01-8.97.01-13.45,2.09.01,4.19.01,6.3.01,0-14.69.01-29.38,0-44.06-2.11-.02-4.21-.03-6.3-.03,0-4.48.01-8.95,0-13.42Z"/>
      <path class="cls-1" d="M657.66,22.04c12.98.02,25.95,0,38.93.01,6,19.16,11.95,38.33,17.91,57.5,2.34,0,4.69-.01,7.05,0,0,4.47,0,8.94,0,13.41-13.55.04-27.1-.01-40.64.03-.01-4.48-.02-8.97,0-13.45,3.19,0,6.4.01,9.61.01-.72-2.28-1.42-4.56-2.11-6.85-6.87,0-13.73.01-20.59-.02-.73,2.29-1.45,4.58-2.16,6.88,2.6-.01,5.22-.01,7.83-.02.02,4.48.02,8.95.01,13.42-10.76.05-21.51-.01-32.26.03.02-4.49.01-8.98.01-13.47,2.28.02,4.57.03,6.87.03,4.56-14.78,9.11-29.56,13.67-44.34-1.39-.01-2.76-.01-4.11-.01-.02-4.39-.03-8.77-.01-13.16ZM678.03,38.78c-2.16,7.21-4.33,14.41-6.51,21.62,4.37,0,8.76,0,13.14-.01-2.26-7.19-4.41-14.42-6.63-21.61Z"/>
      <path class="cls-1" d="M732.31,22.04c10.75.02,21.5.01,32.25,0-.03,4.38-.01,8.75-.01,13.12-1.82,0-3.63,0-5.41.01.1,9-.15,18.02.12,27.02.36,4.52.73,9.68,4.17,13.04,3.16,2.38,7.9,2.33,11.27.39,3.62-2.88,4.04-7.95,4.49-12.22.33-9.29.04-18.6.15-27.9-1.81-.01-3.61-.02-5.38-.02,0-4.48,0-8.95,0-13.43,10,0,20,0,30.01-.01-.01,4.38-.02,8.75-.01,13.13-1.82-.01-3.64-.02-5.43-.03-.19,11.1.45,22.23-.5,33.3-.91,7.9-3.7,16.27-10.38,21.14-7.47,5.59-17.52,5.97-26.37,4.32-7.62-1.42-14.98-5.7-18.8-12.61-3.38-6.04-4.41-13.09-4.46-19.92-.03-8.74,0-17.48,0-26.22-1.92,0-3.82,0-5.7.03-.01-4.38,0-8.76-.01-13.14Z"/>
      <path class="cls-1" d="M815.83,35.05c.06-4.34.05-8.68.04-13.01,13.38.02,26.76,0,40.15.01-.02,4.37-.02,8.74-.02,13.11h-5.79c3.26,4.44,6.53,8.86,9.8,13.29,3.44-4.39,6.79-8.86,10.2-13.28-2.97-.02-5.92-.02-8.87-.05.16-4.36.13-8.73.12-13.09,11.19.04,22.39.02,33.58.01,0,4.37-.01,8.75,0,13.12-2.86,0-5.71,0-8.56,0-5.06,6.57-10.14,13.12-15.24,19.65,6.01,8.41,12.15,16.73,18.18,25.13,1.96.01,3.93.02,5.92.03-.03,4.34-.02,8.69,0,13.03-13.52-.03-27.03,0-40.54-.02.02-4.34,0-8.68,0-13.03,1.89-.01,3.77-.02,5.69-.03-3.2-4.37-6.44-8.7-9.7-13.01-3.43,4.39-6.86,8.77-10.3,13.13,2.95,0,5.91,0,8.88.01.02,4.31.05,8.63.02,12.95-11.21-.02-22.41,0-33.61,0,0-4.35,0-8.69,0-13.03h8.72c4.98-6.48,9.9-12.99,14.89-19.46-5.8-7.93-11.45-15.98-17.3-23.88-1.28-2.24-4.15-1.22-6.25-1.56Z"/>
      <path class="cls-1" d="M383.55,33.44c2.54-1.06,6.09-.25,7.18,2.52,2.09,3.74-.4,8.44-4.12,9.95-2.33-1.04-4.63-2.62-5.63-5.06-1.14-2.65.03-6.05,2.57-7.41Z"/>
      <path class="cls-1" d="M375.61,71.39c1.06-3.45,3.82-6.16,6.82-8.04,4.73,4.01,8.81,8.79,13.39,13-3.96,2.64-8.67,4.5-13.5,4.02-4.17-.49-7.72-4.73-6.71-8.98Z"/>
      <path class="cls-1" d="M275.08,125.04c3.92-4.77,12.19-3.96,15.56,1.06,4.45,6.41,4.56,15,2.17,22.22-2.24-.56-4.48-1.12-6.71-1.68,1.39-4.78,2.49-10.37-.24-14.89-1.24-2.15-4.85-2.2-5.63.35-1.85,5.38-.59,11.54-3.49,16.63-2.29,4.14-8,5.29-12.09,3.33-3.46-1.62-5.58-5.11-6.66-8.64-1.87-6.32-1.45-13.23,1.05-19.31,2.25.66,4.49,1.32,6.74,1.99-2.14,5.37-3.46,11.96-.31,17.2,1.24,2.09,4.54,1.79,5.31-.54,2.01-5.74.47-12.6,4.3-17.72Z"/>
      <path class="cls-1" d="M292.05,162.44c2.08-.98,4.17-1.95,6.27-2.91,4.4,9.47,8.83,18.92,13.26,28.37-2.08.98-4.16,1.96-6.23,2.95-1.62-3.47-3.24-6.93-4.86-10.39-8.77,4.13-17.58,8.2-26.34,12.35-1.19-2.55-2.39-5.1-3.58-7.64,8.77-4.15,17.58-8.22,26.36-12.35-1.62-3.46-3.25-6.92-4.88-10.38Z"/>
      <path class="cls-1" d="M312.81,204.9c12.5-2.97,25.48,8.92,24.34,21.53-.66,8.56-8.12,16.06-16.69,16.73-11.82,1.09-22.96-10.13-21.9-21.92.56-7.78,6.74-14.57,14.25-16.34ZM314.83,212.92c-4.39,1.49-8.03,5.58-8.39,10.28-.59,5.81,4.25,11.33,9.93,12.05,7.01.85,13.81-5.98,12.87-12.98-.85-6.48-8.04-11.65-14.41-9.35Z"/>
      <path class="cls-1" d="M493.07,236.47c7.52-5.08,15.04-10.14,22.55-15.22,1.27,1.88,2.53,3.76,3.79,5.65-5.21,3.5-10.41,6.99-15.6,10.51,1.41,2.12,2.83,4.23,4.26,6.35,4.62-3.1,9.23-6.22,13.83-9.34,1.21,1.83,2.42,3.66,3.64,5.5-4.59,3.1-9.18,6.19-13.77,9.29,1.51,2.26,3.03,4.52,4.56,6.78,5.37-3.68,10.79-7.27,16.17-10.93,1.26,1.88,2.53,3.76,3.79,5.65-7.71,5.18-15.41,10.38-23.11,15.58-6.7-9.94-13.42-19.87-20.11-29.82Z"/>
      <path class="cls-1" d="M357.01,233.13c6.81,3.69,14.78,5.65,20.51,11.07,5.39,5.08,4.2,14.46-1.51,18.8-2.18,1.78-5.06,2.15-7.73,2.63.82,4.54,1.62,9.09,2.4,13.64-2.74-1.28-5.46-2.57-8.19-3.85-.68-4-1.38-7.99-2.03-11.99-2.28-1.06-4.56-2.12-6.84-3.17-1.4,3.01-2.81,6.01-4.22,9.01-2.56-1.18-5.1-2.37-7.64-3.56,5.11-10.85,10.17-21.72,15.25-32.58ZM361.72,242.97c-1.76,3.73-3.5,7.47-5.23,11.21,3.27,1.37,6.36,3.4,9.93,3.92,4.83.59,8.3-6.26,4.93-9.79-2.65-2.64-6.37-3.7-9.63-5.34Z"/>
      <path class="cls-1" d="M452.11,254.94c5.99-9.03,19.21-11.77,28.53-6.41-1.29,2.1-2.61,4.18-3.9,6.28-5.5-3.04-13.11-2.24-16.98,2.98-4.43,5.81-1.32,15.5,5.67,17.63,4.37,1.54,8.92-.35,12.63-2.67-.83-3.52-1.78-7-2.67-10.51,2.47-.65,4.95-1.3,7.42-1.94,1.03,4.86,3.04,9.58,3.41,14.55-6.25,7.21-17.22,10.7-26.2,6.88-9.96-4.15-13.9-17.9-7.91-26.79Z"/>
      <path class="cls-1" d="M392.03,285.55c6.44-11.44,12.82-22.91,19.27-34.35,2.75.27,5.5.55,8.26.84,4.17,12.43,8.45,24.82,12.65,37.24-2.94-.27-5.87-.56-8.79-.84-.83-2.64-1.65-5.28-2.45-7.92-5.5-.45-10.99-1.08-16.49-1.5-1.29,2.44-2.57,4.89-3.86,7.34-2.87-.26-5.73-.52-8.59-.81ZM407.74,272.88c3.71.33,7.44.65,11.16,1-1.43-4.64-2.87-9.27-4.31-13.9-2.28,4.3-4.53,8.62-6.85,12.9Z"/>
    </g>
  </g>
</svg>