<?xml version="1.0" encoding="UTF-8" ?>
<!DOCTYPE svg PUBLIC "-//W3C//DTD SVG 1.1//EN" "http://www.w3.org/Graphics/SVG/1.1/DTD/svg11.dtd">
<svg width="1506pt" height="696pt" viewBox="0 0 1506 696" version="1.1" xmlns="http://www.w3.org/2000/svg">
<g id="#f5f5f5ff">
<path fill="#f5f5f5" opacity="1.00" d=" M 0.00 0.00 L 1506.00 0.00 L 1506.00 696.00 L 0.00 696.00 L 0.00 0.00 M 611.53 267.70 C 613.31 285.46 610.67 303.25 611.32 321.04 C 610.82 328.07 618.91 330.78 621.57 336.43 C 623.64 339.68 622.40 343.54 621.20 346.86 C 624.21 351.78 629.62 356.22 628.05 362.68 C 632.05 366.08 635.79 370.00 637.41 375.12 C 632.02 378.31 634.10 385.01 635.55 389.82 C 628.86 396.34 627.70 406.03 626.09 414.76 C 628.19 417.70 630.14 421.25 629.02 424.98 C 626.99 432.34 620.59 437.18 615.49 442.43 C 617.48 444.96 619.65 447.38 622.32 449.21 C 630.39 445.63 639.27 443.55 648.12 444.52 C 665.92 446.18 681.52 456.23 699.14 458.78 C 702.83 454.73 708.58 455.06 713.40 453.40 C 716.11 457.17 720.24 459.43 724.36 461.36 C 725.58 459.14 726.63 456.83 727.54 454.46 C 721.59 452.20 715.01 453.04 709.02 451.00 C 706.71 450.29 705.55 448.06 704.35 446.17 C 707.70 445.46 711.05 444.73 714.40 444.03 C 714.37 442.67 714.35 441.32 714.34 439.98 C 716.87 440.40 719.40 440.91 721.89 441.57 C 720.94 442.93 720.00 444.29 719.06 445.65 C 723.23 445.54 727.36 446.13 731.50 446.62 C 731.36 447.71 731.15 448.80 731.19 449.92 C 733.01 452.11 735.71 453.81 735.79 456.98 C 741.80 456.65 748.53 458.16 751.76 463.77 C 749.65 465.55 747.04 466.94 746.08 469.71 C 755.89 475.03 767.25 480.06 778.62 477.43 C 782.06 474.89 782.52 469.33 786.91 467.71 C 790.18 468.30 793.28 469.60 796.56 470.24 C 797.32 473.46 798.68 476.48 800.25 479.39 C 802.22 478.51 804.62 478.01 805.90 476.10 C 808.91 471.64 808.54 465.84 811.32 461.28 C 812.80 458.80 816.12 457.21 818.89 458.19 C 820.90 460.04 821.07 463.06 821.98 465.52 C 826.99 468.05 832.84 468.40 837.69 471.26 C 840.29 472.73 840.91 475.80 841.67 478.43 C 846.01 479.85 850.48 480.77 855.00 481.44 C 856.43 477.56 858.18 473.81 859.40 469.86 C 850.32 459.74 833.12 462.43 825.86 450.13 C 827.69 449.91 829.59 449.87 831.42 449.43 C 833.56 446.77 830.86 444.01 829.94 441.46 C 834.12 441.00 838.33 441.00 842.54 440.80 C 838.98 436.25 840.74 430.25 838.86 425.18 C 837.63 421.90 832.91 422.77 831.47 425.40 C 829.74 428.80 829.12 432.65 827.24 435.99 C 824.63 432.39 820.53 430.74 816.36 429.75 C 818.97 427.59 822.41 428.13 825.53 427.65 C 829.08 423.74 830.19 418.05 829.04 412.97 C 827.40 405.42 822.65 399.08 817.97 393.12 C 819.91 387.55 821.51 381.86 822.85 376.11 C 792.79 376.07 762.73 376.13 732.67 376.08 C 731.07 371.58 730.55 366.76 728.65 362.36 C 731.02 361.96 733.41 361.59 735.81 361.28 C 734.54 359.53 733.23 357.81 731.99 356.05 C 733.73 356.51 735.47 356.98 737.21 357.47 C 735.52 353.36 733.18 349.35 733.20 344.77 C 735.22 344.71 737.26 344.68 739.30 344.68 C 739.77 342.70 740.04 340.65 740.91 338.80 C 742.25 337.66 744.17 338.01 745.80 337.74 C 746.39 328.83 756.80 325.08 757.48 316.17 C 753.97 316.21 750.43 316.51 746.95 315.87 C 750.32 313.54 754.46 313.18 758.40 312.58 C 758.28 311.12 758.09 309.66 758.22 308.20 C 759.74 305.69 762.14 303.89 764.08 301.72 C 762.10 301.69 760.14 301.73 758.18 301.70 C 758.11 299.53 758.09 297.36 758.08 295.20 C 756.41 295.20 754.76 295.21 753.12 295.23 C 754.49 291.23 752.84 286.96 754.46 283.01 C 752.66 283.09 750.86 283.14 749.07 283.20 C 751.24 280.63 752.83 277.37 752.16 273.92 C 751.82 271.26 750.28 267.59 747.11 267.74 C 701.92 267.67 656.72 267.76 611.53 267.70 M 386.47 288.67 C 374.26 289.93 363.23 298.46 359.04 310.02 C 355.49 319.44 355.61 330.02 358.28 339.64 C 360.63 347.57 365.97 354.73 373.41 358.54 C 382.16 363.02 392.49 363.77 402.06 362.00 C 410.56 360.44 418.58 355.47 423.02 347.95 C 428.16 339.27 428.94 328.77 427.92 318.94 C 426.96 310.42 423.69 301.72 416.91 296.14 C 408.56 289.13 397.00 287.50 386.47 288.67 M 794.23 289.22 C 784.56 291.29 776.66 298.65 772.48 307.42 C 766.14 320.81 766.85 337.94 775.83 349.99 C 782.63 359.21 795.03 363.59 806.15 361.14 C 810.28 360.27 813.78 357.75 816.74 354.85 C 817.63 356.79 818.56 358.73 819.50 360.67 C 826.30 360.70 833.11 360.66 839.92 360.69 C 839.94 352.24 839.94 343.79 839.93 335.34 C 841.26 335.35 842.60 335.35 843.95 335.36 C 843.93 331.74 843.93 328.13 843.95 324.51 C 832.71 324.52 821.47 324.51 810.24 324.51 C 810.25 328.13 810.25 331.74 810.24 335.36 C 812.29 335.35 814.34 335.34 816.41 335.34 C 816.40 336.97 816.40 338.60 816.41 340.24 C 812.17 346.04 802.86 346.16 798.06 341.03 C 793.83 336.53 792.64 329.99 793.05 324.02 C 793.47 318.01 795.94 311.54 801.35 308.35 C 805.56 305.74 811.42 306.67 814.73 310.31 C 817.27 312.81 817.93 316.44 818.47 319.81 C 824.47 319.70 830.47 319.77 836.47 319.75 C 836.51 309.78 836.43 299.81 836.51 289.84 C 831.45 289.94 826.38 289.57 821.34 290.04 C 820.48 292.28 819.90 294.61 819.24 296.92 C 813.51 289.34 803.07 287.59 794.23 289.22 M 287.62 290.09 C 287.62 294.58 287.62 299.08 287.60 303.57 C 289.45 303.56 291.31 303.57 293.18 303.57 C 293.18 318.26 293.19 332.96 293.17 347.66 C 291.31 347.65 289.45 347.64 287.60 347.64 C 287.61 352.11 287.61 356.57 287.63 361.04 C 306.55 360.94 325.48 361.08 344.40 361.02 C 344.43 352.25 344.41 343.48 344.41 334.71 C 338.69 334.72 332.97 334.71 327.24 334.72 C 327.25 339.03 327.24 343.33 327.25 347.64 C 322.94 347.65 318.63 347.64 314.33 347.64 C 314.33 332.95 314.33 318.26 314.33 303.56 C 316.11 303.56 317.90 303.56 319.69 303.57 C 319.68 299.08 319.69 294.59 319.68 290.11 C 309.00 290.08 298.31 290.11 287.62 290.09 M 455.58 290.09 C 455.57 294.49 455.56 298.89 455.57 303.29 C 456.93 303.28 458.29 303.27 459.66 303.26 C 455.11 318.05 450.55 332.84 446.01 347.63 C 443.70 347.64 441.39 347.65 439.09 347.66 C 439.09 352.11 439.09 356.57 439.11 361.03 C 449.86 361.02 460.61 361.02 471.36 361.02 C 471.34 356.56 471.34 352.09 471.35 347.63 C 468.74 347.63 466.14 347.64 463.54 347.63 C 464.23 345.36 464.94 343.08 465.65 340.81 C 472.53 340.79 479.41 340.80 486.30 340.81 C 487.00 343.08 487.71 345.35 488.40 347.63 C 485.19 347.64 481.98 347.65 478.78 347.64 C 478.79 352.08 478.81 356.52 478.79 360.97 C 492.33 361.08 505.88 360.94 519.43 361.02 C 519.42 356.56 519.41 352.10 519.42 347.63 C 517.09 347.64 514.76 347.65 512.44 347.66 C 506.44 328.48 500.44 309.29 494.49 290.09 C 481.52 290.10 468.55 290.10 455.58 290.09 M 531.25 290.11 C 531.22 294.60 531.23 299.09 531.26 303.58 C 533.34 303.57 535.42 303.55 537.52 303.54 C 537.50 318.24 537.50 332.95 537.51 347.65 C 535.42 347.65 533.32 347.65 531.23 347.65 C 531.23 352.11 531.22 356.56 531.25 361.02 C 542.51 360.98 553.78 361.12 565.04 360.95 C 575.58 360.68 586.77 357.09 593.46 348.49 C 599.56 340.86 601.19 330.59 600.49 321.07 C 599.74 311.38 594.55 302.04 586.31 296.75 C 578.89 291.79 569.82 289.93 561.00 290.09 C 551.08 290.10 541.17 290.08 531.25 290.11 M 855.84 289.74 C 855.85 294.21 855.84 298.68 855.84 303.16 C 857.93 303.16 860.03 303.17 862.14 303.19 C 862.16 317.87 862.15 332.56 862.15 347.25 C 860.04 347.25 857.94 347.25 855.85 347.24 C 855.85 351.72 855.84 356.20 855.84 360.69 C 876.20 360.67 896.55 360.67 916.91 360.69 C 916.90 353.08 916.92 345.48 916.92 337.88 C 911.03 337.91 905.14 337.89 899.26 337.89 C 899.26 341.01 899.24 344.13 899.24 347.25 C 893.89 347.25 888.55 347.24 883.20 347.25 C 883.22 341.72 883.20 336.20 883.19 330.68 C 889.58 330.67 895.96 330.66 902.35 330.69 C 902.32 326.21 902.32 321.73 902.35 317.26 C 895.97 317.25 889.59 317.27 883.21 317.24 C 883.19 312.56 883.21 307.87 883.23 303.19 C 888.57 303.15 893.92 303.16 899.27 303.21 C 899.24 306.20 899.24 309.20 899.23 312.20 C 905.13 312.20 911.03 312.20 916.94 312.19 C 916.88 304.71 916.94 297.23 916.92 289.75 C 896.56 289.75 876.20 289.76 855.84 289.74 M 945.26 289.74 C 945.24 294.13 945.25 298.51 945.27 302.90 C 946.62 302.90 947.99 302.90 949.38 302.91 C 944.82 317.69 940.27 332.47 935.71 347.25 C 933.41 347.25 931.12 347.24 928.84 347.22 C 928.84 351.71 928.85 356.20 928.83 360.69 C 939.58 360.65 950.33 360.71 961.09 360.66 C 961.10 356.19 961.10 351.72 961.08 347.24 C 958.47 347.25 955.85 347.25 953.25 347.26 C 953.96 344.96 954.68 342.67 955.41 340.38 C 962.27 340.41 969.13 340.39 976.00 340.40 C 976.69 342.69 977.39 344.97 978.11 347.25 C 974.90 347.25 971.69 347.24 968.50 347.24 C 968.48 351.72 968.49 356.21 968.50 360.69 C 982.04 360.65 995.59 360.70 1009.14 360.66 C 1009.14 356.19 1009.15 351.72 1009.15 347.25 C 1006.79 347.24 1004.44 347.25 1002.10 347.25 C 996.14 328.08 990.19 308.91 984.19 289.75 C 971.21 289.74 958.24 289.76 945.26 289.74 M 1019.91 289.74 C 1019.92 294.12 1019.91 298.50 1019.92 302.88 C 1021.80 302.86 1023.70 302.86 1025.62 302.85 C 1025.62 311.59 1025.59 320.33 1025.62 329.07 C 1025.67 335.90 1026.70 342.95 1030.08 348.99 C 1033.90 355.90 1041.26 360.18 1048.88 361.60 C 1057.73 363.25 1067.78 362.87 1075.25 357.28 C 1081.93 352.41 1084.72 344.04 1085.63 336.14 C 1086.58 325.07 1085.94 313.94 1086.13 302.84 C 1087.92 302.85 1089.74 302.86 1091.56 302.87 C 1091.55 298.49 1091.56 294.12 1091.57 289.74 C 1081.56 289.75 1071.56 289.75 1061.56 289.75 C 1061.55 294.23 1061.55 298.70 1061.56 303.18 C 1063.33 303.18 1065.13 303.19 1066.94 303.20 C 1066.83 312.50 1067.12 321.81 1066.79 331.10 C 1066.34 335.37 1065.92 340.44 1062.30 343.32 C 1058.93 345.26 1054.19 345.31 1051.03 342.93 C 1047.59 339.57 1047.22 334.41 1046.86 329.89 C 1046.59 320.89 1046.84 311.87 1046.74 302.87 C 1048.52 302.86 1050.33 302.86 1052.15 302.86 C 1052.15 298.49 1052.13 294.12 1052.16 289.74 C 1041.41 289.75 1030.66 289.76 1019.91 289.74 M 1103.43 302.75 C 1105.53 303.09 1108.40 302.07 1109.68 304.31 C 1115.53 312.21 1121.18 320.26 1126.98 328.19 C 1121.99 334.66 1117.07 341.17 1112.09 347.65 C 1109.18 347.65 1106.26 347.65 1103.37 347.65 C 1103.36 351.99 1103.36 356.33 1103.37 360.68 C 1114.57 360.68 1125.77 360.67 1136.98 360.69 C 1137.01 356.37 1136.98 352.05 1136.96 347.74 C 1133.99 347.73 1131.03 347.72 1128.08 347.73 C 1131.52 343.37 1134.95 338.99 1138.38 334.60 C 1141.64 338.91 1144.88 343.24 1148.08 347.61 C 1146.16 347.62 1144.28 347.63 1142.39 347.64 C 1142.40 351.99 1142.42 356.33 1142.40 360.67 C 1155.91 360.69 1169.42 360.66 1182.94 360.69 C 1182.92 356.35 1182.91 352.00 1182.94 347.66 C 1180.95 347.65 1178.98 347.64 1177.02 347.63 C 1170.99 339.23 1164.85 330.91 1158.84 322.50 C 1163.94 315.97 1169.02 309.42 1174.08 302.85 C 1176.93 302.85 1179.78 302.85 1182.64 302.86 C 1182.63 298.49 1182.64 294.11 1182.64 289.74 C 1171.45 289.75 1160.25 289.77 1149.06 289.73 C 1149.07 294.09 1149.10 298.46 1148.94 302.82 C 1151.89 302.85 1154.84 302.85 1157.81 302.87 C 1154.40 307.29 1151.05 311.76 1147.61 316.15 C 1144.34 311.72 1141.07 307.30 1137.81 302.86 C 1139.72 302.86 1141.66 302.86 1143.60 302.86 C 1143.60 298.49 1143.60 294.12 1143.62 289.75 C 1130.23 289.74 1116.85 289.76 1103.47 289.74 C 1103.48 294.07 1103.49 298.41 1103.43 302.75 M 562.68 392.74 C 558.85 397.86 560.39 404.72 558.38 410.46 C 557.61 412.79 554.31 413.09 553.07 411.00 C 549.92 405.76 551.24 399.17 553.38 393.80 C 551.13 393.13 548.89 392.47 546.64 391.81 C 544.14 397.89 543.72 404.80 545.59 411.12 C 546.67 414.65 548.79 418.14 552.25 419.76 C 556.34 421.72 562.05 420.57 564.34 416.43 C 567.24 411.34 565.98 405.18 567.83 399.80 C 568.61 397.25 572.22 397.30 573.46 399.45 C 576.19 403.97 575.09 409.56 573.70 414.34 C 575.93 414.90 578.17 415.46 580.41 416.02 C 582.80 408.80 582.69 400.21 578.24 393.80 C 574.87 388.78 566.60 387.97 562.68 392.74 M 579.65 430.14 C 581.28 433.60 582.91 437.06 584.53 440.52 C 575.75 444.65 566.94 448.72 558.17 452.87 C 559.36 455.41 560.56 457.96 561.75 460.51 C 570.51 456.36 579.32 452.29 588.09 448.16 C 589.71 451.62 591.33 455.08 592.95 458.55 C 595.02 457.56 597.10 456.58 599.18 455.60 C 594.75 446.15 590.32 436.70 585.92 427.23 C 583.82 428.19 581.73 429.16 579.65 430.14 M 600.41 472.60 C 592.90 474.37 586.72 481.16 586.16 488.94 C 585.10 500.73 596.24 511.95 608.06 510.86 C 616.63 510.19 624.09 502.69 624.75 494.13 C 625.89 481.52 612.91 469.63 600.41 472.60 M 780.67 504.17 C 787.36 514.12 794.08 524.05 800.78 533.99 C 808.48 528.79 816.18 523.59 823.89 518.41 C 822.63 516.52 821.36 514.64 820.10 512.76 C 814.72 516.42 809.30 520.01 803.93 523.69 C 802.40 521.43 800.88 519.17 799.37 516.91 C 803.96 513.81 808.55 510.72 813.14 507.62 C 811.92 505.78 810.71 503.95 809.50 502.12 C 804.90 505.24 800.29 508.36 795.67 511.46 C 794.24 509.34 792.82 507.23 791.41 505.11 C 796.60 501.59 801.80 498.10 807.01 494.60 C 805.75 492.71 804.49 490.83 803.22 488.95 C 795.71 494.03 788.19 499.09 780.67 504.17 M 644.61 500.83 C 639.53 511.69 634.47 522.56 629.36 533.41 C 631.90 534.60 634.44 535.79 637.00 536.97 C 638.41 533.97 639.82 530.97 641.22 527.96 C 643.50 529.01 645.78 530.07 648.06 531.13 C 648.71 535.13 649.41 539.12 650.09 543.12 C 652.82 544.40 655.54 545.69 658.28 546.97 C 657.50 542.42 656.70 537.87 655.88 533.33 C 658.55 532.85 661.43 532.48 663.61 530.70 C 669.32 526.36 670.51 516.98 665.12 511.90 C 659.39 506.48 651.42 504.52 644.61 500.83 M 739.71 522.64 C 733.72 531.53 737.66 545.28 747.62 549.43 C 756.60 553.25 767.57 549.76 773.82 542.55 C 773.45 537.58 771.44 532.86 770.41 528.00 C 767.94 528.64 765.46 529.29 762.99 529.94 C 763.88 533.45 764.83 536.93 765.66 540.45 C 761.95 542.77 757.40 544.66 753.03 543.12 C 746.04 540.99 742.93 531.30 747.36 525.49 C 751.23 520.27 758.84 519.47 764.34 522.51 C 765.63 520.41 766.95 518.33 768.24 516.23 C 758.92 510.87 745.70 513.61 739.71 522.64 M 679.63 553.25 C 682.49 553.54 685.35 553.80 688.22 554.06 C 689.51 551.61 690.79 549.16 692.08 546.72 C 697.58 547.14 703.07 547.77 708.57 548.22 C 709.37 550.86 710.19 553.50 711.02 556.14 C 713.94 556.42 716.87 556.71 719.81 556.98 C 715.61 544.56 711.33 532.17 707.16 519.74 C 704.40 519.45 701.65 519.17 698.90 518.90 C 692.45 530.34 686.07 541.81 679.63 553.25 Z" />
<path fill="#f5f5f5" opacity="1.00" d=" M 659.29 293.25 C 665.57 288.81 673.79 288.19 681.11 289.90 C 686.08 291.13 690.85 294.04 693.40 298.60 C 696.21 303.31 696.45 309.65 693.32 314.26 C 691.14 317.67 687.55 319.73 684.08 321.57 C 687.23 324.62 690.31 327.76 693.45 330.83 C 695.58 326.47 697.31 321.92 698.69 317.27 C 705.98 317.28 713.28 317.27 720.58 317.27 C 720.58 321.60 720.57 325.93 720.58 330.26 C 717.26 330.26 713.95 330.27 710.63 330.26 C 709.12 334.52 707.20 338.63 704.89 342.51 C 706.98 344.59 709.07 346.67 711.15 348.77 C 713.07 348.76 715.00 348.75 716.94 348.74 C 716.90 353.08 716.91 357.41 716.92 361.74 C 711.81 361.74 706.71 361.77 701.61 361.72 C 699.53 359.58 697.41 357.49 695.28 355.41 C 686.57 362.39 674.74 364.33 663.92 362.62 C 657.49 361.38 651.01 358.23 647.36 352.59 C 642.87 345.98 642.74 336.73 647.08 330.02 C 649.84 325.62 654.14 322.53 658.58 320.00 C 655.36 317.04 652.32 313.46 651.68 309.00 C 650.46 302.77 654.15 296.55 659.29 293.25 M 671.15 301.14 C 668.61 302.50 667.44 305.90 668.58 308.55 C 669.58 310.99 671.88 312.57 674.21 313.61 C 677.93 312.10 680.42 307.40 678.33 303.66 C 677.24 300.89 673.69 300.08 671.15 301.14 M 663.21 339.09 C 662.20 343.34 665.75 347.58 669.92 348.07 C 674.75 348.55 679.46 346.69 683.42 344.05 C 678.84 339.84 674.76 335.06 670.03 331.05 C 667.03 332.93 664.27 335.64 663.21 339.09 Z" />
<path fill="#f5f5f5" opacity="1.00" d=" M 390.20 304.18 C 393.37 303.38 396.70 304.85 398.52 307.50 C 402.51 313.10 402.87 320.33 402.90 326.97 C 402.75 333.12 402.00 339.94 397.65 344.66 C 395.22 347.45 390.63 347.53 387.92 345.13 C 384.36 342.17 382.97 337.48 382.14 333.10 C 380.98 325.91 381.21 318.33 383.70 311.42 C 384.89 308.37 386.87 305.15 390.20 304.18 Z" />
<path fill="#f5f5f5" opacity="1.00" d=" M 558.41 347.73 C 558.35 332.97 558.36 318.22 558.40 303.47 C 562.56 303.58 567.24 303.46 570.54 306.47 C 576.38 311.40 577.47 319.70 577.21 326.91 C 576.88 333.41 575.48 340.79 570.04 345.02 C 566.78 347.67 562.38 347.64 558.41 347.73 Z" />
<path fill="#f5f5f5" opacity="1.00" d=" M 469.41 328.49 C 471.59 321.28 473.73 314.05 475.93 306.84 C 478.11 314.06 480.34 321.26 482.51 328.47 C 478.14 328.49 473.78 328.48 469.41 328.49 Z" />
<path fill="#f5f5f5" opacity="1.00" d=" M 965.63 306.48 C 967.85 313.67 970.00 320.90 972.26 328.09 C 967.88 328.10 963.49 328.11 959.12 328.10 C 961.30 320.89 963.47 313.69 965.63 306.48 Z" />
<path fill="#f5f5f5" opacity="1.00" d=" M 602.43 480.62 C 608.80 478.32 615.99 483.49 616.84 489.97 C 617.78 496.97 610.98 503.80 603.97 502.95 C 598.29 502.23 593.45 496.71 594.04 490.90 C 594.40 486.20 598.04 482.11 602.43 480.62 Z" />
<path fill="#f5f5f5" opacity="1.00" d=" M 649.32 510.67 C 652.58 512.31 656.30 513.37 658.95 516.01 C 662.32 519.54 658.85 526.39 654.02 525.80 C 650.45 525.28 647.36 523.25 644.09 521.88 C 645.82 518.14 647.56 514.40 649.32 510.67 Z" />
<path fill="#f5f5f5" opacity="1.00" d=" M 695.34 540.58 C 697.66 536.30 699.91 531.98 702.19 527.68 C 703.63 532.31 705.07 536.94 706.50 541.58 C 702.78 541.23 699.05 540.91 695.34 540.58 Z" />
</g>
<g id="#094742ff">
<path fill="#094742" opacity="1.00" d=" M 611.53 267.70 C 656.72 267.76 701.92 267.67 747.11 267.74 C 750.28 267.59 751.82 271.26 752.16 273.92 C 752.83 277.37 751.24 280.63 749.07 283.20 C 750.86 283.14 752.66 283.09 754.46 283.01 C 752.84 286.96 754.49 291.23 753.12 295.23 C 754.76 295.21 756.41 295.20 758.08 295.20 C 758.09 297.36 758.11 299.53 758.18 301.70 C 760.14 301.73 762.10 301.69 764.08 301.72 C 762.14 303.89 759.74 305.69 758.22 308.20 C 758.09 309.66 758.28 311.12 758.40 312.58 C 754.46 313.18 750.32 313.54 746.95 315.87 C 750.43 316.51 753.97 316.21 757.48 316.17 C 756.80 325.08 746.39 328.83 745.80 337.74 C 744.17 338.01 742.25 337.66 740.91 338.80 C 740.04 340.65 739.77 342.70 739.30 344.68 C 737.26 344.68 735.22 344.71 733.20 344.77 C 733.18 349.35 735.52 353.36 737.21 357.47 C 735.47 356.98 733.73 356.51 731.99 356.05 C 733.23 357.81 734.54 359.53 735.81 361.28 C 733.41 361.59 731.02 361.96 728.65 362.36 C 730.55 366.76 731.07 371.58 732.67 376.08 C 762.73 376.13 792.79 376.07 822.85 376.11 C 821.51 381.86 819.91 387.55 817.97 393.12 C 822.65 399.08 827.40 405.42 829.04 412.97 C 830.19 418.05 829.08 423.74 825.53 427.65 C 822.41 428.13 818.97 427.59 816.36 429.75 C 820.53 430.74 824.63 432.39 827.24 435.99 C 829.12 432.65 829.74 428.80 831.47 425.40 C 832.91 422.77 837.63 421.90 838.86 425.18 C 840.74 430.25 838.98 436.25 842.54 440.80 C 838.33 441.00 834.12 441.00 829.94 441.46 C 830.86 444.01 833.56 446.77 831.42 449.43 C 829.59 449.87 827.69 449.91 825.86 450.13 C 833.12 462.43 850.32 459.74 859.40 469.86 C 858.18 473.81 856.43 477.56 855.00 481.44 C 850.48 480.77 846.01 479.85 841.67 478.43 C 840.91 475.80 840.29 472.73 837.69 471.26 C 832.84 468.40 826.99 468.05 821.98 465.52 C 821.07 463.06 820.90 460.04 818.89 458.19 C 816.12 457.21 812.80 458.80 811.32 461.28 C 808.54 465.84 808.91 471.64 805.90 476.10 C 804.62 478.01 802.22 478.51 800.25 479.39 C 798.68 476.48 797.32 473.46 796.56 470.24 C 793.28 469.60 790.18 468.30 786.91 467.71 C 782.52 469.33 782.06 474.89 778.62 477.43 C 767.25 480.06 755.89 475.03 746.08 469.71 C 747.04 466.94 749.65 465.55 751.76 463.77 C 748.53 458.16 741.80 456.65 735.79 456.98 C 735.71 453.81 733.01 452.11 731.19 449.92 C 731.15 448.80 731.36 447.71 731.50 446.62 C 727.36 446.13 723.23 445.54 719.06 445.65 C 720.00 444.29 720.94 442.93 721.89 441.57 C 719.40 440.91 716.87 440.40 714.34 439.98 C 714.35 441.32 714.37 442.67 714.40 444.03 C 711.05 444.73 707.70 445.46 704.35 446.17 C 705.55 448.06 706.71 450.29 709.02 451.00 C 715.01 453.04 721.59 452.20 727.54 454.46 C 726.63 456.83 725.58 459.14 724.36 461.36 C 720.24 459.43 716.11 457.17 713.40 453.40 C 708.58 455.06 702.83 454.73 699.14 458.78 C 681.52 456.23 665.92 446.18 648.12 444.52 C 639.27 443.55 630.39 445.63 622.32 449.21 C 619.65 447.38 617.48 444.96 615.49 442.43 C 620.59 437.18 626.99 432.34 629.02 424.98 C 630.14 421.25 628.19 417.70 626.09 414.76 C 627.70 406.03 628.86 396.34 635.55 389.82 C 634.10 385.01 632.02 378.31 637.41 375.12 C 635.79 370.00 632.05 366.08 628.05 362.68 C 629.62 356.22 624.21 351.78 621.20 346.86 C 622.40 343.54 623.64 339.68 621.57 336.43 C 618.91 330.78 610.82 328.07 611.32 321.04 C 610.67 303.25 613.31 285.46 611.53 267.70 M 659.29 293.25 C 654.15 296.55 650.46 302.77 651.68 309.00 C 652.32 313.46 655.36 317.04 658.58 320.00 C 654.14 322.53 649.84 325.62 647.08 330.02 C 642.74 336.73 642.87 345.98 647.36 352.59 C 651.01 358.23 657.49 361.38 663.92 362.62 C 674.74 364.33 686.57 362.39 695.28 355.41 C 697.41 357.49 699.53 359.58 701.61 361.72 C 706.71 361.77 711.81 361.74 716.92 361.74 C 716.91 357.41 716.90 353.08 716.94 348.74 C 715.00 348.75 713.07 348.76 711.15 348.77 C 709.07 346.67 706.98 344.59 704.89 342.51 C 707.20 338.63 709.12 334.52 710.63 330.26 C 713.95 330.27 717.26 330.26 720.58 330.26 C 720.57 325.93 720.58 321.60 720.58 317.27 C 713.28 317.27 705.98 317.28 698.69 317.27 C 697.31 321.92 695.58 326.47 693.45 330.83 C 690.31 327.76 687.23 324.62 684.08 321.57 C 687.55 319.73 691.14 317.67 693.32 314.26 C 696.45 309.65 696.21 303.31 693.40 298.60 C 690.85 294.04 686.08 291.13 681.11 289.90 C 673.79 288.19 665.57 288.81 659.29 293.25 Z" />
<path fill="#094742" opacity="1.00" d=" M 386.47 288.67 C 397.00 287.50 408.56 289.13 416.91 296.14 C 423.69 301.72 426.96 310.42 427.92 318.94 C 428.94 328.77 428.16 339.27 423.02 347.95 C 418.58 355.47 410.56 360.44 402.06 362.00 C 392.49 363.77 382.16 363.02 373.41 358.54 C 365.97 354.73 360.63 347.57 358.28 339.64 C 355.61 330.02 355.49 319.44 359.04 310.02 C 363.23 298.46 374.26 289.93 386.47 288.67 M 390.20 304.18 C 386.87 305.15 384.89 308.37 383.70 311.42 C 381.21 318.33 380.98 325.91 382.14 333.10 C 382.97 337.48 384.36 342.17 387.92 345.13 C 390.63 347.53 395.22 347.45 397.65 344.66 C 402.00 339.94 402.75 333.12 402.90 326.97 C 402.87 320.33 402.51 313.10 398.52 307.50 C 396.70 304.85 393.37 303.38 390.20 304.18 Z" />
<path fill="#094742" opacity="1.00" d=" M 794.23 289.22 C 803.07 287.59 813.51 289.34 819.24 296.92 C 819.90 294.61 820.48 292.28 821.34 290.04 C 826.38 289.57 831.45 289.94 836.51 289.84 C 836.43 299.81 836.51 309.78 836.47 319.75 C 830.47 319.77 824.47 319.70 818.47 319.81 C 817.93 316.44 817.27 312.81 814.73 310.31 C 811.42 306.67 805.56 305.74 801.35 308.35 C 795.94 311.54 793.47 318.01 793.05 324.02 C 792.64 329.99 793.83 336.53 798.06 341.03 C 802.86 346.16 812.17 346.04 816.41 340.24 C 816.40 338.60 816.40 336.97 816.41 335.34 C 814.34 335.34 812.29 335.35 810.24 335.36 C 810.25 331.74 810.25 328.13 810.24 324.51 C 821.47 324.51 832.71 324.52 843.95 324.51 C 843.93 328.13 843.93 331.74 843.95 335.36 C 842.60 335.35 841.26 335.35 839.93 335.34 C 839.94 343.79 839.94 352.24 839.92 360.69 C 833.11 360.66 826.30 360.70 819.50 360.67 C 818.56 358.73 817.63 356.79 816.74 354.85 C 813.78 357.75 810.28 360.27 806.15 361.14 C 795.03 363.59 782.63 359.21 775.83 349.99 C 766.85 337.94 766.14 320.81 772.48 307.42 C 776.66 298.65 784.56 291.29 794.23 289.22 Z" />
<path fill="#094742" opacity="1.00" d=" M 287.62 290.09 C 298.31 290.11 309.00 290.08 319.68 290.11 C 319.69 294.59 319.68 299.08 319.69 303.57 C 317.90 303.56 316.11 303.56 314.33 303.56 C 314.33 318.26 314.33 332.95 314.33 347.64 C 318.63 347.64 322.94 347.65 327.25 347.64 C 327.24 343.33 327.25 339.03 327.24 334.72 C 332.97 334.71 338.69 334.72 344.41 334.71 C 344.41 343.48 344.43 352.25 344.40 361.02 C 325.48 361.08 306.55 360.94 287.63 361.04 C 287.61 356.57 287.61 352.11 287.60 347.64 C 289.45 347.64 291.31 347.65 293.17 347.66 C 293.19 332.96 293.18 318.26 293.18 303.57 C 291.31 303.57 289.45 303.56 287.60 303.57 C 287.62 299.08 287.62 294.58 287.62 290.09 Z" />
<path fill="#094742" opacity="1.00" d=" M 455.58 290.09 C 468.55 290.10 481.52 290.10 494.49 290.09 C 500.44 309.29 506.44 328.48 512.44 347.66 C 514.76 347.65 517.09 347.64 519.42 347.63 C 519.41 352.10 519.42 356.56 519.43 361.02 C 505.88 360.94 492.33 361.08 478.79 360.97 C 478.81 356.52 478.79 352.08 478.78 347.64 C 481.98 347.65 485.19 347.64 488.40 347.63 C 487.71 345.35 487.00 343.08 486.30 340.81 C 479.41 340.80 472.53 340.79 465.65 340.81 C 464.94 343.08 464.23 345.36 463.54 347.63 C 466.14 347.64 468.74 347.63 471.35 347.63 C 471.34 352.09 471.34 356.56 471.36 361.02 C 460.61 361.02 449.86 361.02 439.11 361.03 C 439.09 356.57 439.09 352.11 439.09 347.66 C 441.39 347.65 443.70 347.64 446.01 347.63 C 450.55 332.84 455.11 318.05 459.66 303.26 C 458.29 303.27 456.93 303.28 455.57 303.29 C 455.56 298.89 455.57 294.49 455.58 290.09 M 469.41 328.49 C 473.78 328.48 478.14 328.49 482.51 328.47 C 480.34 321.26 478.11 314.06 475.93 306.84 C 473.73 314.05 471.59 321.28 469.41 328.49 Z" />
<path fill="#094742" opacity="1.00" d=" M 531.25 290.11 C 541.17 290.08 551.08 290.10 561.00 290.09 C 569.82 289.93 578.89 291.79 586.31 296.75 C 594.55 302.04 599.74 311.38 600.49 321.07 C 601.19 330.59 599.56 340.86 593.46 348.49 C 586.77 357.09 575.58 360.68 565.04 360.95 C 553.78 361.12 542.51 360.98 531.25 361.02 C 531.22 356.56 531.23 352.11 531.23 347.65 C 533.32 347.65 535.42 347.65 537.51 347.65 C 537.50 332.95 537.50 318.24 537.52 303.54 C 535.42 303.55 533.34 303.57 531.26 303.58 C 531.23 299.09 531.22 294.60 531.25 290.11 M 558.41 347.73 C 562.38 347.64 566.78 347.67 570.04 345.02 C 575.48 340.79 576.88 333.41 577.21 326.91 C 577.47 319.70 576.38 311.40 570.54 306.47 C 567.24 303.46 562.56 303.58 558.40 303.47 C 558.36 318.22 558.35 332.97 558.41 347.73 Z" />
<path fill="#094742" opacity="1.00" d=" M 855.84 289.74 C 876.20 289.76 896.56 289.75 916.92 289.75 C 916.94 297.23 916.88 304.71 916.94 312.19 C 911.03 312.20 905.13 312.20 899.23 312.20 C 899.24 309.20 899.24 306.20 899.27 303.21 C 893.92 303.16 888.57 303.15 883.23 303.19 C 883.21 307.87 883.19 312.56 883.21 317.24 C 889.59 317.27 895.97 317.25 902.35 317.26 C 902.32 321.73 902.32 326.21 902.35 330.69 C 895.96 330.66 889.58 330.67 883.19 330.68 C 883.20 336.20 883.22 341.72 883.20 347.25 C 888.55 347.24 893.89 347.25 899.24 347.25 C 899.24 344.13 899.26 341.01 899.26 337.89 C 905.14 337.89 911.03 337.91 916.92 337.88 C 916.92 345.48 916.90 353.08 916.91 360.69 C 896.55 360.67 876.20 360.67 855.84 360.69 C 855.84 356.20 855.85 351.72 855.85 347.24 C 857.94 347.25 860.04 347.25 862.15 347.25 C 862.15 332.56 862.16 317.87 862.14 303.19 C 860.03 303.17 857.93 303.16 855.84 303.16 C 855.84 298.68 855.85 294.21 855.84 289.74 Z" />
<path fill="#094742" opacity="1.00" d=" M 945.26 289.74 C 958.24 289.76 971.21 289.74 984.19 289.75 C 990.19 308.91 996.14 328.08 1002.10 347.25 C 1004.44 347.25 1006.79 347.24 1009.15 347.25 C 1009.15 351.72 1009.14 356.19 1009.14 360.66 C 995.59 360.70 982.04 360.65 968.50 360.69 C 968.49 356.21 968.48 351.72 968.50 347.24 C 971.69 347.24 974.90 347.25 978.11 347.25 C 977.39 344.97 976.69 342.69 976.00 340.40 C 969.13 340.39 962.27 340.41 955.41 340.38 C 954.68 342.67 953.96 344.96 953.25 347.26 C 955.85 347.25 958.47 347.25 961.08 347.24 C 961.10 351.72 961.10 356.19 961.09 360.66 C 950.33 360.71 939.58 360.65 928.83 360.69 C 928.85 356.20 928.84 351.71 928.84 347.22 C 931.12 347.24 933.41 347.25 935.71 347.25 C 940.27 332.47 944.82 317.69 949.38 302.91 C 947.99 302.90 946.62 302.90 945.27 302.90 C 945.25 298.51 945.24 294.13 945.26 289.74 M 965.63 306.48 C 963.47 313.69 961.30 320.89 959.12 328.10 C 963.49 328.11 967.88 328.10 972.26 328.09 C 970.00 320.90 967.85 313.67 965.63 306.48 Z" />
<path fill="#094742" opacity="1.00" d=" M 1019.91 289.74 C 1030.66 289.76 1041.41 289.75 1052.16 289.74 C 1052.13 294.12 1052.15 298.49 1052.15 302.86 C 1050.33 302.86 1048.52 302.86 1046.74 302.87 C 1046.84 311.87 1046.59 320.89 1046.86 329.89 C 1047.22 334.41 1047.59 339.57 1051.03 342.93 C 1054.19 345.31 1058.93 345.26 1062.30 343.32 C 1065.92 340.44 1066.34 335.37 1066.79 331.10 C 1067.12 321.81 1066.83 312.50 1066.94 303.20 C 1065.13 303.19 1063.33 303.18 1061.56 303.18 C 1061.55 298.70 1061.55 294.23 1061.56 289.75 C 1071.56 289.75 1081.56 289.75 1091.57 289.74 C 1091.56 294.12 1091.55 298.49 1091.56 302.87 C 1089.74 302.86 1087.92 302.85 1086.13 302.84 C 1085.94 313.94 1086.58 325.07 1085.63 336.14 C 1084.72 344.04 1081.93 352.41 1075.25 357.28 C 1067.78 362.87 1057.73 363.25 1048.88 361.60 C 1041.26 360.18 1033.90 355.90 1030.08 348.99 C 1026.70 342.95 1025.67 335.90 1025.62 329.07 C 1025.59 320.33 1025.62 311.59 1025.62 302.85 C 1023.70 302.86 1021.80 302.86 1019.92 302.88 C 1019.91 298.50 1019.92 294.12 1019.91 289.74 Z" />
<path fill="#094742" opacity="1.00" d=" M 1103.43 302.75 C 1103.49 298.41 1103.48 294.07 1103.47 289.74 C 1116.85 289.76 1130.23 289.74 1143.62 289.75 C 1143.60 294.12 1143.60 298.49 1143.60 302.86 C 1141.66 302.86 1139.72 302.86 1137.81 302.86 C 1141.07 307.30 1144.34 311.72 1147.61 316.15 C 1151.05 311.76 1154.40 307.29 1157.81 302.87 C 1154.84 302.85 1151.89 302.85 1148.94 302.82 C 1149.10 298.46 1149.07 294.09 1149.06 289.73 C 1160.25 289.77 1171.45 289.75 1182.64 289.74 C 1182.64 294.11 1182.63 298.49 1182.64 302.86 C 1179.78 302.85 1176.93 302.85 1174.08 302.85 C 1169.02 309.42 1163.94 315.97 1158.84 322.50 C 1164.85 330.91 1170.99 339.23 1177.02 347.63 C 1178.98 347.64 1180.95 347.65 1182.94 347.66 C 1182.91 352.00 1182.92 356.35 1182.94 360.69 C 1169.42 360.66 1155.91 360.69 1142.40 360.67 C 1142.42 356.33 1142.40 351.99 1142.39 347.64 C 1144.28 347.63 1146.16 347.62 1148.08 347.61 C 1144.88 343.24 1141.64 338.91 1138.38 334.60 C 1134.95 338.99 1131.52 343.37 1128.08 347.73 C 1131.03 347.72 1133.99 347.73 1136.96 347.74 C 1136.98 352.05 1137.01 356.37 1136.98 360.69 C 1125.77 360.67 1114.57 360.68 1103.37 360.68 C 1103.36 356.33 1103.36 351.99 1103.37 347.65 C 1106.26 347.65 1109.18 347.65 1112.09 347.65 C 1117.07 341.17 1121.99 334.66 1126.98 328.19 C 1121.18 320.26 1115.53 312.21 1109.68 304.31 C 1108.40 302.07 1105.53 303.09 1103.43 302.75 Z" />
<path fill="#094742" opacity="1.00" d=" M 671.15 301.14 C 673.69 300.08 677.24 300.89 678.33 303.66 C 680.42 307.40 677.93 312.10 674.21 313.61 C 671.88 312.57 669.58 310.99 668.58 308.55 C 667.44 305.90 668.61 302.50 671.15 301.14 Z" />
<path fill="#094742" opacity="1.00" d=" M 663.21 339.09 C 664.27 335.64 667.03 332.93 670.03 331.05 C 674.76 335.06 678.84 339.84 683.42 344.05 C 679.46 346.69 674.75 348.55 669.92 348.07 C 665.75 347.58 662.20 343.34 663.21 339.09 Z" />
<path fill="#094742" opacity="1.00" d=" M 562.68 392.74 C 566.60 387.97 574.87 388.78 578.24 393.80 C 582.69 400.21 582.80 408.80 580.41 416.02 C 578.17 415.46 575.93 414.90 573.70 414.34 C 575.09 409.56 576.19 403.97 573.46 399.45 C 572.22 397.30 568.61 397.25 567.83 399.80 C 565.98 405.18 567.24 411.34 564.34 416.43 C 562.05 420.57 556.34 421.72 552.25 419.76 C 548.79 418.14 546.67 414.65 545.59 411.12 C 543.72 404.80 544.14 397.89 546.64 391.81 C 548.89 392.47 551.13 393.13 553.38 393.80 C 551.24 399.17 549.92 405.76 553.07 411.00 C 554.31 413.09 557.61 412.79 558.38 410.46 C 560.39 404.72 558.85 397.86 562.68 392.74 Z" />
<path fill="#094742" opacity="1.00" d=" M 579.65 430.14 C 581.73 429.16 583.82 428.19 585.92 427.23 C 590.32 436.70 594.75 446.15 599.18 455.60 C 597.10 456.58 595.02 457.56 592.95 458.55 C 591.33 455.08 589.71 451.62 588.09 448.16 C 579.32 452.29 570.51 456.36 561.75 460.51 C 560.56 457.96 559.36 455.41 558.17 452.87 C 566.94 448.72 575.75 444.65 584.53 440.52 C 582.91 437.06 581.28 433.60 579.65 430.14 Z" />
<path fill="#094742" opacity="1.00" d=" M 600.41 472.60 C 612.91 469.63 625.89 481.52 624.75 494.13 C 624.09 502.69 616.63 510.19 608.06 510.86 C 596.24 511.95 585.10 500.73 586.16 488.94 C 586.72 481.16 592.90 474.37 600.41 472.60 M 602.43 480.62 C 598.04 482.11 594.40 486.20 594.04 490.90 C 593.45 496.71 598.29 502.23 603.97 502.95 C 610.98 503.80 617.78 496.97 616.84 489.97 C 615.99 483.49 608.80 478.32 602.43 480.62 Z" />
<path fill="#094742" opacity="1.00" d=" M 780.67 504.17 C 788.19 499.09 795.71 494.03 803.22 488.95 C 804.49 490.83 805.75 492.71 807.01 494.60 C 801.80 498.10 796.60 501.59 791.41 505.11 C 792.82 507.23 794.24 509.34 795.67 511.46 C 800.29 508.36 804.90 505.24 809.50 502.12 C 810.71 503.95 811.92 505.78 813.14 507.62 C 808.55 510.72 803.96 513.81 799.37 516.91 C 800.88 519.17 802.40 521.43 803.93 523.69 C 809.30 520.01 814.72 516.42 820.10 512.76 C 821.36 514.64 822.63 516.52 823.89 518.41 C 816.18 523.59 808.48 528.79 800.78 533.99 C 794.08 524.05 787.36 514.12 780.67 504.17 Z" />
<path fill="#094742" opacity="1.00" d=" M 644.61 500.83 C 651.42 504.52 659.39 506.48 665.12 511.90 C 670.51 516.98 669.32 526.36 663.61 530.70 C 661.43 532.48 658.55 532.85 655.88 533.33 C 656.70 537.87 657.50 542.42 658.28 546.97 C 655.54 545.69 652.82 544.40 650.09 543.12 C 649.41 539.12 648.71 535.13 648.06 531.13 C 645.78 530.07 643.50 529.01 641.22 527.96 C 639.82 530.97 638.41 533.97 637.00 536.97 C 634.44 535.79 631.90 534.60 629.36 533.41 C 634.47 522.56 639.53 511.69 644.61 500.83 M 649.32 510.67 C 647.56 514.40 645.82 518.14 644.09 521.88 C 647.36 523.25 650.45 525.28 654.02 525.80 C 658.85 526.39 662.32 519.54 658.95 516.01 C 656.30 513.37 652.58 512.31 649.32 510.67 Z" />
<path fill="#094742" opacity="1.00" d=" M 739.71 522.64 C 745.70 513.61 758.92 510.87 768.24 516.23 C 766.95 518.33 765.63 520.41 764.34 522.51 C 758.84 519.47 751.23 520.27 747.36 525.49 C 742.93 531.30 746.04 540.99 753.03 543.12 C 757.40 544.66 761.95 542.77 765.66 540.45 C 764.83 536.93 763.88 533.45 762.99 529.94 C 765.46 529.29 767.94 528.64 770.41 528.00 C 771.44 532.86 773.45 537.58 773.82 542.55 C 767.57 549.76 756.60 553.25 747.62 549.43 C 737.66 545.28 733.72 531.53 739.71 522.64 Z" />
<path fill="#094742" opacity="1.00" d=" M 679.63 553.25 C 686.07 541.81 692.45 530.34 698.90 518.90 C 701.65 519.17 704.40 519.45 707.16 519.74 C 711.33 532.17 715.61 544.56 719.81 556.98 C 716.87 556.71 713.94 556.42 711.02 556.14 C 710.19 553.50 709.37 550.86 708.57 548.22 C 703.07 547.77 697.58 547.14 692.08 546.72 C 690.79 549.16 689.51 551.61 688.22 554.06 C 685.35 553.80 682.49 553.54 679.63 553.25 M 695.34 540.58 C 699.05 540.91 702.78 541.23 706.50 541.58 C 705.07 536.94 703.63 532.31 702.19 527.68 C 699.91 531.98 697.66 536.30 695.34 540.58 Z" />
</g>
</svg>
